<svg xmlns="http://www.w3.org/2000/svg" viewBox="0 0 22.99 24">1
    <title>condominios</title>
    <path fill="#fff" d="M20.09,3.67l-6-1.88L11.62,3.22l-.33-1.46L14.09,0l6.3,2.08Z"/>
    <path fill="#fff" d="M20.09,7.39l-6-1.88L11.62,6.94l-.33-1.46,2.8-1.76,6.3,2.08Z"/>
    <path fill="#fff" d="M20.09,11.11l-6-1.88-2.47,1.43-.33-1.45,2.8-1.77,6.3,2.08Z"/>
    <path fill="#fff" d="M20.09,14.83l-6-1.88-2.47,1.43-.33-1.45,2.8-1.77,6.3,2.08Z"/>
    <path fill="#fff" d="M20.09,18.55l-6-1.88L11.62,18.1l-.33-1.45,2.8-1.77L20.39,17Z"/>
    <path fill="#fff" d="M10.23,7.39l-6-1.88L1.76,6.94,1.43,5.48l2.8-1.76L10.54,5.8Z"/>
    <path fill="#fff" d="M10.23,11.11l-6-1.88L1.76,10.66,1.43,9.21l2.8-1.77,6.31,2.08Z"/>
    <path fill="#fff" d="M10.23,14.83,4.23,13,1.76,14.38l-.33-1.45,2.8-1.77,6.31,2.08Z"/>
    <path fill="#fff" d="M10.23,18.55l-6-1.88L1.76,18.1l-.33-1.45,2.8-1.77L10.54,17Z"/>
    <path fill="#fff" d="M20.39,20.44l-6.3-2.07-2.8,1.76V23h-.75v-2.6L4.23,18.37l-2.8,1.76V23H0V24H23V23h-2.6ZM8.91,23H5.65V20.83l3.26.86Zm9.86,0H15.52V20.83l3.25.86Z"/>
</svg>