<svg xmlns="http://www.w3.org/2000/svg" viewBox="0 0 32 32"><defs><style>.cls-1{fill:#222220;}.cls-2{fill:#fff;}</style></defs><title>adm-redes-viales-alt</title><g id="Capa_2" data-name="Capa 2"><g id="Capa_1-2" data-name="Capa 1"><polygon class="cls-1" points="20.62 0 4.38 0 12.7 14.41 0 21.74 0 32 10.35 32 19.73 26.58 22.86 32 32 32 32 19.71 31.91 19.55 32 19.53 32 3.26 24.88 7.38 20.62 0"/><rect class="cls-2" x="12.48" y="17.5" width="2" height="0.5" transform="translate(-7.07 9.12) rotate(-30)"/><rect class="cls-2" x="26.38" y="9.47" width="2" height="0.5" transform="translate(-1.19 14.99) rotate(-30)"/><rect class="cls-2" x="13.23" y="18.8" width="2" height="0.5" transform="translate(-7.62 9.66) rotate(-30)"/><rect class="cls-2" x="27.13" y="10.77" width="2" height="0.5" transform="translate(-1.74 15.54) rotate(-30)"/><rect class="cls-2" x="11.73" y="16.2" width="2" height="0.5" transform="translate(-6.52 8.57) rotate(-30)"/><rect class="cls-2" x="25.63" y="8.17" width="2" height="0.5" transform="translate(-0.64 14.44) rotate(-30)"/><rect class="cls-2" x="13.98" y="20.09" width="2" height="0.5" transform="translate(-8.17 10.21) rotate(-30)"/><rect class="cls-2" x="27.88" y="12.06" width="2" height="0.5" transform="translate(-2.29 16.09) rotate(-30)"/><rect class="cls-2" x="14.73" y="21.39" width="2" height="0.5" transform="translate(-8.71 10.76) rotate(-30)"/><rect class="cls-2" x="28.63" y="13.36" width="2" height="0.5" transform="translate(-2.84 16.64) rotate(-30)"/><rect class="cls-2" x="15.48" y="22.69" width="2" height="0.5" transform="translate(-9.26 11.31) rotate(-30)"/><rect class="cls-2" x="29.38" y="14.66" width="2" height="0.5" transform="translate(-3.39 17.19) rotate(-30)"/><rect class="cls-2" x="16.98" y="25.29" width="2" height="0.5" transform="translate(-10.36 12.41) rotate(-30)"/><polygon class="cls-2" points="32 17.73 31.14 18.23 30.89 17.79 32 17.16 32 17.73"/><rect class="cls-2" x="16.23" y="23.99" width="2" height="0.5" transform="translate(-9.81 11.86) rotate(-30)"/><polygon class="cls-2" points="32 16 30.39 16.93 30.14 16.5 31.87 15.49 32 15.71 32 16"/><rect class="cls-2" x="14.04" y="11.65" width="2" height="0.5" transform="translate(17.83 -7.08) rotate(60)"/><rect class="cls-2" x="22.07" y="25.56" width="2" height="0.5" transform="translate(33.89 -7.08) rotate(60)"/><rect class="cls-2" x="15.34" y="10.9" width="2" height="0.5" transform="translate(17.83 -8.58) rotate(60)"/><rect class="cls-2" x="12.74" y="12.4" width="2" height="0.5" transform="translate(17.83 -5.58) rotate(60)"/><rect class="cls-2" x="23.37" y="24.81" width="2" height="0.5" transform="translate(33.89 -8.58) rotate(60)"/><rect class="cls-2" x="22.07" y="25.56" width="2" height="0.5" transform="translate(33.89 -7.08) rotate(60)"/><rect class="cls-2" x="20.77" y="26.31" width="2" height="0.5" transform="translate(33.89 -5.58) rotate(60)"/><rect class="cls-2" x="16.64" y="10.15" width="2" height="0.5" transform="translate(17.83 -10.08) rotate(60)"/><rect class="cls-2" x="24.67" y="24.06" width="2" height="0.5" transform="translate(33.89 -10.08) rotate(60)"/><rect class="cls-2" x="17.94" y="9.4" width="2" height="0.5" transform="translate(17.83 -11.58) rotate(60)"/><rect class="cls-2" x="25.97" y="23.31" width="2" height="0.5" transform="translate(33.89 -11.58) rotate(60)"/><rect class="cls-2" x="19.24" y="8.65" width="2" height="0.5" transform="translate(17.83 -13.08) rotate(60)"/><rect class="cls-2" x="21.84" y="7.15" width="2" height="0.5" transform="translate(17.83 -16.08) rotate(60)"/><rect class="cls-2" x="27.27" y="22.56" width="2" height="0.5" transform="translate(33.89 -13.08) rotate(60)"/><rect class="cls-2" x="29.87" y="21.06" width="2" height="0.5" transform="translate(33.89 -16.08) rotate(60)"/><rect class="cls-2" x="20.54" y="7.9" width="2" height="0.5" transform="translate(17.83 -14.58) rotate(60)"/><rect class="cls-2" x="28.57" y="21.81" width="2" height="0.5" transform="translate(33.89 -14.58) rotate(60)"/><rect class="cls-2" x="7.9" y="21.87" width="11" height="0.5" transform="translate(25.86 -0.55) rotate(60)"/><polygon class="cls-2" points="12.44 22.96 0 30.14 0 29.57 12.19 22.53 12.44 22.96"/><rect class="cls-2" x="7.17" y="20.12" width="2.5" height="0.5" transform="translate(-9.06 6.94) rotate(-30)"/><rect class="cls-2" x="3.71" y="22.12" width="2.5" height="0.5" transform="translate(-10.52 5.48) rotate(-30)"/><rect class="cls-2" x="0.24" y="24.12" width="2.5" height="0.5" transform="translate(-11.99 4.01) rotate(-30)"/><rect class="cls-2" x="11.17" y="27.05" width="2.5" height="0.5" transform="translate(-11.99 9.87) rotate(-30)"/><rect class="cls-2" x="7.71" y="29.05" width="2.5" height="0.5" transform="translate(-13.45 8.4) rotate(-30)"/><polygon class="cls-2" points="6.7 30.89 4.79 32 4.45 32 4.29 31.71 6.45 30.46 6.7 30.89"/><polygon class="cls-2" points="32 7.05 31.28 7.47 31.03 7.03 32 6.47 32 7.05"/><polygon class="cls-2" points="32 13.71 28.24 7.2 28.67 6.95 32 12.71 32 13.71"/><rect class="cls-2" x="11.66" y="7.83" width="11" height="0.5" transform="translate(36.07 6.49) rotate(150)"/><polygon class="cls-2" points="16.32 7.12 12.22 0 12.79 0 16.76 6.87 16.32 7.12"/><polygon class="cls-2" points="30.68 32 27.86 27.09 28.29 26.84 31.26 32 30.68 32"/><polygon class="cls-2" points="22.56 28.41 32 22.96 32 23.54 22.81 28.85 22.56 28.41"/></g></g></svg>