<svg xmlns="http://www.w3.org/2000/svg" viewBox="0 0 32 32">
<title>geobd</title>
    <path d="M23,14a9,9,0,1,0,9,9A9,9,0,0,0,23,14Zm-.47,4.56a10.72,10.72,0,0,1-2-.26c.5-1.72,1.25-2.88,2-3.23Zm0,1v3h-2.6a18,18,0,0,1,.37-3.31A12.24,12.24,0,0,0,22.53,19.51Zm0,4v3a12.24,12.24,0,0,0-2.23.29,18,18,0,0,1-.37-3.31Zm0,4v3.49c-.75-.35-1.5-1.51-2-3.23A10.72,10.72,0,0,1,22.53,27.44Zm.94,0a10.72,10.72,0,0,1,2,.26c-.5,1.72-1.25,2.88-2,3.23Zm0-1v-3h2.6a18,18,0,0,1-.37,3.31A12.13,12.13,0,0,0,23.47,26.49Zm0-4v-3a12.13,12.13,0,0,0,2.23-.29,18,18,0,0,1,.37,3.31Zm0-4V15.07c.75.35,1.5,1.51,2,3.23A10.72,10.72,0,0,1,23.47,18.56ZM19.63,18a7.35,7.35,0,0,1-.9-.37,6.4,6.4,0,0,1,1.91-2A9.21,9.21,0,0,0,19.63,18Zm-.24.93A18.52,18.52,0,0,0,19,22.53H17.29a10.31,10.31,0,0,1,1-4A9.56,9.56,0,0,0,19.39,19ZM19,23.47A18.52,18.52,0,0,0,19.39,27a9.56,9.56,0,0,0-1.13.47,10.31,10.31,0,0,1-1-4Zm.65,4.5a9.21,9.21,0,0,0,1,2.36,6.4,6.4,0,0,1-1.91-2A7.35,7.35,0,0,1,19.63,28Zm6.75,0a7.9,7.9,0,0,1,.89.37,6.4,6.4,0,0,1-1.91,2A9.57,9.57,0,0,0,26.38,28Zm.23-.93A18.52,18.52,0,0,0,27,23.47h1.69a10.31,10.31,0,0,1-1,4A9.56,9.56,0,0,0,26.61,27ZM27,22.53A18.52,18.52,0,0,0,26.61,19a9.56,9.56,0,0,0,1.13-.47,10.31,10.31,0,0,1,1,4ZM26.38,18a9.57,9.57,0,0,0-1-2.36,6.4,6.4,0,0,1,1.91,2A7.9,7.9,0,0,1,26.38,18Zm1-1.75a7.89,7.89,0,0,1,.93.71l-.27.2A6.83,6.83,0,0,0,27.42,16.28Zm-9.5.91-.27-.2a7.89,7.89,0,0,1,.93-.71A6.83,6.83,0,0,0,17.92,17.19Zm-.47.82a11.07,11.07,0,0,0-1.1,4.52H15a8,8,0,0,1,2-4.86C17.13,17.79,17.29,17.9,17.45,18Zm-1.1,5.46A11.07,11.07,0,0,0,17.45,28c-.16.11-.32.22-.47.34a8,8,0,0,1-2-4.86Zm1.57,5.34a6.83,6.83,0,0,0,.66.91,7.89,7.89,0,0,1-.93-.71Zm10.16,0,.27.2a7.89,7.89,0,0,1-.93.71A6.83,6.83,0,0,0,28.08,28.81Zm.47-.82a11.07,11.07,0,0,0,1.1-4.52H31a8,8,0,0,1-2,4.86C28.87,28.21,28.71,28.1,28.55,28Zm1.1-5.46A11.07,11.07,0,0,0,28.55,18c.16-.11.32-.22.47-.34a8,8,0,0,1,2,4.86Z"/>
    <path d="M13,22.74C5.74,22.61,0,21.1,0,19.25V24.5C0,26.43,6.27,28,14,28h.35A10,10,0,0,1,13,23C13,22.91,13,22.83,13,22.74Z"/>
    <path d="M16.18,15.7c-.71,0-1.44.05-2.18.05-7.73,0-14-1.57-14-3.5V17.5C0,19.37,5.84,20.89,13.2,21A10,10,0,0,1,16.18,15.7Z"/>
    <path d="M28,12.25c0,.52-.47,1-1.3,1.47a10.38,10.38,0,0,1,1.3.63Z"/>
    <path d="M23.65,13C26.32,12.4,28,11.5,28,10.5V5.25c0,1.93-6.27,3.5-14,3.5S0,7.18,0,5.25V10.5C0,12.43,6.27,14,14,14c1.84,0,3.6-.09,5.22-.25A9.88,9.88,0,0,1,23,13C23.22,13,23.43,13,23.65,13Z"/>
    <ellipse cx="14" cy="3.5" rx="14" ry="3.5"/>
</svg>