<svg xmlns="http://www.w3.org/2000/svg" viewBox="0 0 32 22.68"><defs><style>.cls-1{fill:#222220;}</style></defs><title>info-nacional</title><g id="Capa_2" data-name="Capa 2"><g id="Capa_1-2" data-name="Capa 1"><polygon class="cls-1" points="0 0 1.01 3.55 2.59 5.95 1.29 5.95 4.24 8.75 3.88 9.85 6.28 12.54 7 12.01 2.16 3.28 2.16 1.05 3.5 1.99 4.89 5.63 7.41 8.39 7.05 9.28 10.81 13.07 11.37 14.65 10.79 15.73 13.02 18.03 21.1 21.46 23.36 20.69 26.3 22.68 26.76 20.76 28.24 20.76 27.45 18.73 29.9 18.44 32 14 27.91 14.67 27.55 16.81 23.36 18.39 21.36 16.98 19.49 13.28 20.31 9.18 18.18 8.61 15.87 4.55 14.53 4.43 13.76 5.51 12.35 4.58 10.65 1.99 8.61 1.97 8.54 2.52 5.97 2.3 2.3 0 0 0"/></g></g></svg>