<svg xmlns="http://www.w3.org/2000/svg" viewBox="0 0 32 32"><defs><style>.cls-1{fill:#222220;}</style></defs><title>mapas-base-alt</title><g id="Capa_2" data-name="Capa 2"><g id="Capa_1-2" data-name="Capa 1"><path class="cls-1" d="M16.52,1V7.16l-.52,0-.52,0V1h1m1-1h-3V8.25l1.08-.09.44,0,.44,0,1.08.09V0Z"/><path class="cls-1" d="M7.16,15.48c0,.17,0,.34,0,.52s0,.35,0,.52H1v-1H7.16m1.09-1H0v3H8.25l-.09-1.08c0-.14,0-.29,0-.44s0-.3,0-.44l.09-1.08Z"/><path class="cls-1" d="M16.52,24.84V31h-1V24.84l.52,0,.52,0m1-1.09-1.08.09-.44,0-.44,0-1.08-.09V32h3V23.75Z"/><path class="cls-1" d="M31,15.48v1H24.84c0-.17,0-.34,0-.52s0-.35,0-.52H31m1-1H23.75l.09,1.08c0,.14,0,.29,0,.44s0,.3,0,.44l-.09,1.08H32v-3Z"/><path class="cls-1" d="M16,22a6,6,0,1,1,6-6A6,6,0,0,1,16,22Zm0-11.43A5.43,5.43,0,1,0,21.43,16,5.44,5.44,0,0,0,16,10.57Z"/><circle class="cls-1" cx="16" cy="16" r="4.08"/><polygon class="cls-1" points="9.56 18.37 9.56 18.37 9.56 18.37 9.56 18.37"/><path class="cls-1" d="M31,20.76V31H20.76V23.93a9.25,9.25,0,0,0,3.17-3.17H31m1-1H23.34a8.15,8.15,0,0,1-3.58,3.58V32H32V19.76Z"/><path class="cls-1" d="M8.07,20.76a9.08,9.08,0,0,0,3.17,3.17V31H1V20.76H8.07m.59-1H0V32H12.24V23.34a8.15,8.15,0,0,1-3.58-3.58Z"/><path class="cls-1" d="M11.24,1V8.07a9.08,9.08,0,0,0-3.17,3.17H1V1H11.24m1-1H0V12.24H8.66a8.15,8.15,0,0,1,3.58-3.58V0Z"/><path class="cls-1" d="M25.81,1l-5,5.05V1h5m2.42-1H19.76V8.46L28.23,0Z"/><path class="cls-1" d="M31,6.19v5.05H26l5.05-5m1-2.42-8.46,8.47H32V3.77Z"/></g></g></svg>