<svg xmlns="http://www.w3.org/2000/svg" viewBox="0 0 32 32"><defs><style>.cls-1{opacity:0.8;}.cls-2,.cls-3{fill:#222220;}.cls-3{opacity:0.5;}</style></defs><title>restitucion-fotogrametrica</title><g id="Capa_2" data-name="Capa 2"><g id="Capa_1-2" data-name="Capa 1"><path class="cls-1" d="M27.19,24l3-5.13L32,19.94V18.79L30.65,18,32,15.68v-2l-2.21,3.83-5.14-3,3-5.14L32,11.94V10.79L28.12,8.55,29.59,6H28.43L27.25,8.05,23.7,6h-2l5.05,2.91-3,5.14-5.14-3L21.59,6H20.43l-2.64,4.58-5.14-3L13.59,6H12.43l-.64,1.12L9.85,6h-2l3.44,2-3,5.13L6,11.78v1.15L7.82,14,6,17.14v2l2.69-4.65,5.13,3-3,5.13L6,19.78v1.15l4.36,2.52-3,5.13L6,27.78v1.15l.89.52L6,31v1h.58L7.76,30,11.31,32h2L8.26,29.08l3-5.13,5.14,3L13.42,32h1.16l2.64-4.59,5.14,3L21.42,32h1.16l.64-1.12,2,1.12h2l-3.45-2,3-5.13,5.13,3L29.42,32h1.16L32,29.54V26.79ZM18.15,12l5.14,3-3,5.14-5.13-3Zm-9,1.67,3-5.13,5.14,3-3,5.13Zm7.67,12.43-5.14-3,3-5.13,5.13,3Zm6,3.46-5.14-3,3-5.14,5.13,3Zm3.46-6-5.13-3,3-5.14,5.14,3Z"/><path class="cls-1" d="M24.19,24l3-5.13L29,19.94V18.79L27.65,18,29,15.68v-2l-2.21,3.83-5.14-3,3-5.14L29,11.94V10.79L25.12,8.55,26.59,6H25.43L24.25,8.05,20.7,6h-2l5.05,2.91-3,5.14-5.14-3L18.59,6H17.43l-2.64,4.58-5.14-3L10.59,6H9.43L8.79,7.12,6.85,6h-2L8.29,8l-3,5.13L3,11.78v1.15L4.82,14,3,17.14v2l2.69-4.65,5.13,3-3,5.13L3,19.78v1.15l4.36,2.52-3,5.13L3,27.78v1.15l.89.52L3,31v1h.58L4.76,30,8.31,32h2L5.26,29.08l3-5.13,5.14,3L10.42,32h1.16l2.64-4.59,5.14,3L18.42,32h1.16l.64-1.12,2,1.12h2l-3.45-2,3-5.13,5.13,3L26.42,32h1.16L29,29.54V26.79ZM15.15,12l5.14,3-3,5.14-5.13-3Zm-9,1.67,3-5.13,5.14,3-3,5.13Zm7.67,12.43-5.14-3,3-5.13,5.13,3Zm6,3.46-5.14-3,3-5.14,5.13,3Zm3.46-6-5.13-3,3-5.14,5.14,3Z"/><path class="cls-2" d="M8.07,1c3.11,0,3.67,0,3.67,4,0,1.93-.36,2.84-3.67,2.84S1,5.51,1,3.57C1,1.8,4.66,1,8.07,1m0-1C4.56,0,0,.82,0,3.57S4.56,8.81,8.07,8.81,12.73,7.73,12.73,5c0-4.64-1.14-5-4.66-5Z"/><path class="cls-2" d="M19.93,1C23.34,1,27,1.8,27,3.57c0,1.94-3.84,4.25-7.08,4.25S16.26,6.91,16.26,5c0-4,.56-4,3.67-4m0-1c-3.52,0-4.66.34-4.66,5,0,2.75,1.14,3.83,4.66,3.83S28,6.32,28,3.57,23.44,0,19.93,0Z"/><path class="cls-2" d="M12.46,2.36c0,.21.69.38,1.54.38s1.54-.17,1.54-.38v2c0-.41-.69-.74-1.54-.74s-1.54.33-1.54.74Z"/><path class="cls-3" d="M19.93,1C23.34,1,27,1.8,27,3.57c0,1.94-3.84,4.25-7.08,4.25S16.26,6.91,16.26,5c0-4,.56-4,3.67-4"/></g></g></svg>