<svg xmlns="http://www.w3.org/2000/svg" viewBox="0 0 28 32"><defs><style>.cls-1{fill:#222220;}.cls-2{fill:none;stroke:#222220;stroke-miterlimit:10;stroke-width:2px;stroke-dasharray:2 1.5;}</style></defs><title>sipreg</title><g id="Capa_2" data-name="Capa 2"><g id="Capa_1-2" data-name="Capa 1"><path class="cls-1" d="M10,0H8V2h2V0ZM6.48,0h-2V2h2V0ZM3,0H1V.52H0v2H2V2H3V0ZM2,4H0V6H2V4Zm0,3.5H0v2H2v-2ZM2,11H0v2H2V11Zm1.5,3.5H0v2H3.5v-2Zm3.5,0H5v2H7v-2Zm3.5,0h-2v2h2v-2Zm3,0H12V16h-.52v.52h2v-2Zm0-2h-2v2h2v-2Zm0-3.5h-2v2h2V9Zm0-3.5h-2v2h2v-2Zm0-5.5h-2V2h0V4h2V0Z"/><path class="cls-1" d="M0,16.52V32H18.48V21.08h5.71V32H28V16.52Zm14,8.74H3.68V21.08H14Z"/><line class="cls-2" x1="13.48" y1="2.46" x2="24.19" y2="6.37"/><line class="cls-2" x1="20.84" y1="16.52" x2="20.84" y2="5.14"/></g></g></svg>