<svg xmlns="http://www.w3.org/2000/svg" viewBox="0 0 17.09 32"><title>valor</title><g id="Capa_2" data-name="Capa 2"><g id="Capa_1-2" data-name="Capa 1"><path d="M17.09,21.12c0-3.76-1.94-5.9-7.1-7.91l-.17-.07V5.44a8.34,8.34,0,0,1,1.11.11l.31,1.82c.43,2.58,1.69,3.1,3,3.1a2,2,0,0,0,2.09-1.84c-.06-2.92-2.7-4.86-6.49-5.16V0H7.47V3.5C2.81,4,.13,6.74.13,10.28c0,3.89,2.38,6,6.66,7.67l.46.18v8.1A10.84,10.84,0,0,1,5.07,26L4.8,23.83c-.27-2-1.09-2.64-2.51-2.64A2.38,2.38,0,0,0,0,22.92c0,3.24,2.65,5.18,7.25,5.3V32H9.59V28.12C14.3,27.53,17.09,24.72,17.09,21.12ZM5,9A3.18,3.18,0,0,1,7.47,5.65v6.53C5.88,11.42,5,10.56,5,9ZM9.59,26V19.14C11.27,20,12,20.9,12,22.76A3.25,3.25,0,0,1,9.59,26Z"/></g></g></svg>