<svg xmlns="http://www.w3.org/2000/svg" viewBox="0 0 33.14 32.57"><defs><style>.cls-1{fill:#222220;}.cls-2,.cls-3,.cls-4{fill:none;stroke:#222220;}.cls-2{stroke-miterlimit:10;}.cls-3,.cls-4{stroke-linecap:round;stroke-linejoin:round;}.cls-3{stroke-dasharray:3 3;}</style></defs><title>vuelo-fotogrametrico</title><g id="Capa_2" data-name="Capa 2"><g id="Capa_1-2" data-name="Capa 1"><path class="cls-1" d="M33.14,3.12a.4.4,0,0,0-.45-.36c-1.33.15-2.66.35-4,.57s-2.63.46-3.94.72q-2.52.5-5,1.07c-.38-.17-.77-.33-1.17-.47l-.88-.31c.41-.09.81-.2,1.18-.31l-.78-.38c-.56,0-1.31.12-2.17.23l-.13,0L14.27.26,13.51,0l.92,3.74a.18.18,0,0,0,0,.22l.07.12a42.5,42.5,0,0,0-4.36.85l.62.48c1.11-.12,2.69-.31,4.28-.56.21.28.42.54.64.8L16,6c-2.27.53-4.54,1.09-6.79,1.68C6.59,8.35,4,9.05,1.45,9.83a.44.44,0,0,0,.2.86c2.64-.41,5.27-.89,7.89-1.4s5.23-1.06,7.84-1.64l.23-.05a26.24,26.24,0,0,0,2.54,1.94,20.68,20.68,0,0,0,3.43,1.87,15.12,15.12,0,0,0,1.89.67c.32.09.66.17,1,.24a8.73,8.73,0,0,0,1.06.15.61.61,0,0,0,.32-.08.59.59,0,0,0,.21-.8,8,8,0,0,0-.6-.88c-.21-.27-.44-.53-.66-.78a15.81,15.81,0,0,0-1.45-1.39,19.57,19.57,0,0,0-2.91-2c.92-.22,1.83-.44,2.73-.68,1.3-.33,2.58-.68,3.87-1.06S31.6,4,32.87,3.55A.42.42,0,0,0,33.14,3.12Z"/><polygon class="cls-2" points="19.84 31.95 30.98 17.28 17.77 14.84 1.14 23.79 19.84 31.95"/><line class="cls-3" x1="1.14" y1="23.79" x2="17.89" y2="7.66"/><line class="cls-3" x1="19.84" y1="31.95" x2="17.89" y2="7.66"/><line class="cls-3" x1="30.98" y1="17.28" x2="17.89" y2="7.66"/><line class="cls-3" x1="17.76" y1="14.84" x2="17.89" y2="7.66"/><polygon class="cls-4" points="7.77 20.22 8.93 27.19 1.14 23.79 7.77 20.22"/><polygon class="cls-4" points="9.51 19.28 10.45 23.4 15.48 20.22 13.57 17.1 9.51 19.28"/><polygon class="cls-4" points="15.48 16.07 22.96 27.84 27.43 21.95 22.55 15.72 17.77 14.84 15.48 16.07"/><polygon class="cls-4" points="26.16 16.39 27.43 18.2 29.03 16.92 26.16 16.39"/><polygon class="cls-4" points="10.71 25.16 11.25 28.2 19.84 31.95 21.45 29.82 17.14 22.32 10.71 25.16"/></g></g></svg>