<svg xmlns="http://www.w3.org/2000/svg" viewBox="0 0 32 32"><defs><style>.cls-1{fill:#222220;}.cls-2{fill:#fff;}</style></defs><title>amd-redes-viales</title><g id="Capa_2" data-name="Capa 2"><g id="Capa_1-2" data-name="Capa 1"><polygon class="cls-1" points="20.62 0 9.58 0 16.6 12.16 0 21.74 0 32 10.35 32 15.83 28.83 17.66 32 28.7 32 24.11 24.05 32 19.5 32 3.26 24.88 7.38 20.62 0"/><rect class="cls-2" x="18.17" y="27.81" width="2" height="0.5" transform="translate(33.89 -2.58) rotate(60)"/><rect class="cls-2" x="16.88" y="28.56" width="2" height="0.5" transform="translate(33.89 -1.08) rotate(60)"/><rect class="cls-2" x="19.47" y="27.06" width="2" height="0.5" transform="translate(33.89 -4.08) rotate(60)"/><polygon class="cls-2" points="22.89 32 21.99 30.44 22.43 30.19 23.47 32 22.89 32"/><rect class="cls-2" x="20.77" y="26.31" width="2" height="0.5" transform="translate(33.89 -5.58) rotate(60)"/><rect class="cls-2" x="22.07" y="25.56" width="2" height="0.5" transform="translate(33.89 -7.08) rotate(60)"/><rect class="cls-2" x="17.94" y="9.4" width="2" height="0.5" transform="translate(17.83 -11.58) rotate(60)"/><rect class="cls-2" x="19.24" y="8.65" width="2" height="0.5" transform="translate(17.83 -13.08) rotate(60)"/><rect class="cls-2" x="16.64" y="10.15" width="2" height="0.5" transform="translate(17.83 -10.08) rotate(60)"/><rect class="cls-2" x="16.61" y="4.54" width="2.5" height="0.5" transform="translate(13.08 -13.08) rotate(60)"/><rect class="cls-2" x="14.61" y="1.07" width="2.5" height="0.5" transform="translate(9.08 -13.08) rotate(60)"/><rect class="cls-2" x="20.54" y="7.9" width="2" height="0.5" transform="translate(17.83 -14.58) rotate(60)"/><rect class="cls-2" x="21.84" y="7.15" width="2" height="0.5" transform="translate(17.83 -16.08) rotate(60)"/><polygon class="cls-2" points="32 11.67 0 30.14 0 29.57 32 11.09 32 11.67"/><rect class="cls-2" x="9.15" y="19.56" width="2.5" height="0.5" transform="translate(-8.51 7.86) rotate(-30)"/><rect class="cls-2" x="12.62" y="17.56" width="2.5" height="0.5" transform="translate(-7.05 9.32) rotate(-30)"/><rect class="cls-2" x="16.08" y="15.56" width="2.5" height="0.5" transform="translate(-5.58 10.78) rotate(-30)"/><rect class="cls-2" x="19.55" y="13.56" width="2.5" height="0.5" transform="translate(-4.12 12.25) rotate(-30)"/><rect class="cls-2" x="23.01" y="11.56" width="2.5" height="0.5" transform="translate(-2.65 13.71) rotate(-30)"/><polygon class="cls-2" points="32 7.63 30.23 8.65 29.98 8.22 32 7.05 32 7.63"/><rect class="cls-2" x="26.47" y="9.56" width="2.5" height="0.5" transform="translate(-1.19 15.18) rotate(-30)"/><rect class="cls-2" x="5.69" y="21.56" width="2.5" height="0.5" transform="translate(-9.97 6.39) rotate(-30)"/><rect class="cls-2" x="2.23" y="23.56" width="2.5" height="0.5" transform="translate(-11.44 4.93) rotate(-30)"/><polygon class="cls-2" points="1.22 25.4 0 26.1 0 25.53 0.97 24.97 1.22 25.4"/><rect class="cls-2" x="12.65" y="25.62" width="2.5" height="0.5" transform="translate(-11.07 10.42) rotate(-30)"/><rect class="cls-2" x="16.12" y="23.62" width="2.5" height="0.5" transform="translate(-9.61 11.88) rotate(-30)"/><rect class="cls-2" x="19.58" y="21.62" width="2.5" height="0.5" transform="translate(-8.14 13.35) rotate(-30)"/><rect class="cls-2" x="23.05" y="19.62" width="2.5" height="0.5" transform="translate(-6.68 14.81) rotate(-30)"/><rect class="cls-2" x="26.51" y="17.62" width="2.5" height="0.5" transform="translate(-5.22 16.27) rotate(-30)"/><polygon class="cls-2" points="32 15.71 30.27 16.71 30.02 16.28 32 15.13 32 15.71"/><rect class="cls-2" x="9.19" y="27.62" width="2.5" height="0.5" transform="translate(-12.54 8.95) rotate(-30)"/><rect class="cls-2" x="5.73" y="29.62" width="2.5" height="0.5" transform="translate(-14 7.49) rotate(-30)"/><polygon class="cls-2" points="4.72 31.46 3.79 32 2.79 32 4.47 31.03 4.72 31.46"/><rect class="cls-2" x="15.86" y="6.7" width="6.5" height="0.5" transform="translate(39.14 3.41) rotate(150)"/><rect class="cls-2" x="18.35" y="29.01" width="6.5" height="0.5" transform="translate(54.93 43.79) rotate(150)"/></g></g></svg>