<svg xmlns="http://www.w3.org/2000/svg" viewBox="0 0 32 32"><defs><style>.cls-1{fill:#222220;}.cls-2{fill:none;stroke:#222220;stroke-miterlimit:10;}</style></defs><title>analisis-territorial</title><g id="Capa_2" data-name="Capa 2"><g id="Capa_1-2" data-name="Capa 1"><path class="cls-1" d="M23.15,1c2.75,0,3.09,1.55,3.44,4.28a7.55,7.55,0,0,0,1.3,4C31,13,31,17.73,31,21.57c0,3.3-4.7,7-11.44,7A32.37,32.37,0,0,0,10,30.06,17.75,17.75,0,0,1,5,31c-3.12,0-4-1.42-4-6.31a14.56,14.56,0,0,1,1.15-5.12,29.22,29.22,0,0,0,2-10.85c0-7,13.32-7.72,19-7.72m0-1c-11.26,0-20,2.48-20,8.72C3.11,17.6,0,19.88,0,24.69S.84,32,5,32s7.29-2.45,14.54-2.45,12.44-4,12.44-8,0-9-3.35-12.9C26.62,6.31,29,0,23.15,0Z"/><path class="cls-1" d="M22,3c2.11,0,2.58,1.33,3.08,4.16a7.36,7.36,0,0,0,1.23,3.57c2.47,2.88,2.46,6.77,2.46,9.9v.34c0,2.66-4.08,5.63-9.54,5.63a31.63,31.63,0,0,0-8.15,1.11,18,18,0,0,1-4.24.69c-2.25,0-3.19-.71-3.19-5.11,0-1,1.31-1.58,3.46-2.47,3-1.24,7.06-2.94,7.06-7.88V12c0-2.89,0-5.63,1.61-7.29C17,3.54,19,3,22,3m0-1c-9.4,0-8.83,5.73-8.83,10.94,0,7.41-10.52,6.34-10.52,10.35s.71,6.11,4.19,6.11,6.34-1.8,12.39-1.8,10.54-3.32,10.54-6.63.1-7.62-2.7-10.89C25.37,8.07,26.84,2,22,2Z"/><path class="cls-1" d="M21.67,4.91c1.53,0,1.78.64,1.91,3a5.45,5.45,0,0,0,.89,3.38c2.2,2.58,2.2,6,2.2,8.76,0,2.28-3.32,4.82-8.08,4.82a44,44,0,0,0-4.87.38,32.65,32.65,0,0,1-3.6.31c-2,0-2-.57-2-1,0-.85,1-1.52,2.76-2.53,2.38-1.4,5.64-3.31,5.64-7.62,0-.78-.05-1.6-.11-2.39-.16-2.35-.31-4.56.87-5.83.8-.86,2.29-1.3,4.43-1.3m0-1c-8.21,0-6.19,6-6.19,10.52,0,6.48-8.4,6.64-8.4,10.15,0,1.56,1.22,2,3,2,2.29,0,5.53-.69,8.47-.69,5.29,0,9.08-2.93,9.08-5.82s0-6.55-2.45-9.41c-1.47-1.72.69-6.74-3.55-6.74Z"/><path class="cls-1" d="M22.58,12h0a.5.5,0,0,1,.43.17c1.76,2,1.76,4.8,1.76,7,0,1.77-2.74,3.75-6.4,3.75a18.38,18.38,0,0,0-3.93.47,7.47,7.47,0,0,1-1.24.2,2.45,2.45,0,0,1,0-.54c0-.59,1.09-1.11,2.24-1.67,2.11-1,5-2.41,5-6.08,0-2.14,1.29-3.32,2.18-3.32m0-1c-1.4,0-3.18,1.54-3.18,4.32,0,5.28-7.25,4.89-7.25,7.75,0,1.19.34,1.54,1,1.54,1,0,2.67-.67,5.18-.67,4.3,0,7.4-2.39,7.4-4.75s0-5.34-2-7.67A1.52,1.52,0,0,0,22.58,11Z"/><path class="cls-1" d="M22.36,16.23h0a1.3,1.3,0,0,1,.25,0h0c.42.55.37,1,.22,1.82a7.61,7.61,0,0,0-.15,1.34c0,.71-1,1.71-2.74,1.71a8,8,0,0,0-1.74.2l.49-.28c1.1-.6,2.77-1.51,2.77-3.84a.86.86,0,0,1,.89-1m0-1a1.85,1.85,0,0,0-1.89,2c0,3-3.66,2.79-3.66,4.42,0,.69.16.88.52.88A19.89,19.89,0,0,1,20,22.13c2.18,0,3.74-1.36,3.74-2.71s.73-2.44-.28-3.76a1.29,1.29,0,0,0-1.05-.43Z"/><path class="cls-2" d="M6.75,18.18c1.57-.49,4.72-1.48,5.09-6.66s1.9-8.4-2.22-7.34S6,13.64,4.38,16.49C2.32,20.19,5.72,18.5,6.75,18.18Z"/></g></g></svg>