<svg xmlns="http://www.w3.org/2000/svg" viewBox="0 0 31.17 31.17"><defs><style>.cls-1{fill:#222220;}.cls-2{fill:none;stroke:#222220;stroke-miterlimit:10;stroke-width:0.5px;stroke-dasharray:2 1;}.cls-3{fill:#fff;}</style></defs><title>apoyo-terrestre-alt</title><g id="Capa_2" data-name="Capa 2"><g id="Capa_1-2" data-name="Capa 1"><circle class="cls-1" cx="9.08" cy="0.97" r="0.97"/><circle class="cls-1" cx="8.89" cy="8.15" r="0.97"/><circle class="cls-1" cx="15.58" cy="1.58" r="0.97"/><circle class="cls-1" cx="13.11" cy="7.98" r="0.97"/><circle class="cls-1" cx="12.94" cy="11.94" r="0.97"/><circle class="cls-1" cx="19.22" cy="12.94" r="0.97"/><circle class="cls-1" cx="23.01" cy="8.89" r="0.97"/><circle class="cls-1" cx="30.2" cy="9.08" r="0.97"/><circle class="cls-1" cx="23.19" cy="13.11" r="0.97"/><circle class="cls-1" cx="29.58" cy="15.58" r="0.97"/><circle class="cls-1" cx="18.23" cy="19.22" r="0.97"/><circle class="cls-1" cx="16.23" cy="18.62" r="0.97"/><circle class="cls-1" cx="12.65" cy="16.21" r="0.97"/><circle class="cls-1" cx="9.62" cy="14.96" r="0.97"/><circle class="cls-1" cx="4.62" cy="10.7" r="0.97"/><circle class="cls-1" cx="11.94" cy="18.23" r="0.97"/><circle class="cls-1" cx="7.98" cy="18.06" r="0.97"/><circle class="cls-1" cx="1.58" cy="15.58" r="0.97"/><circle class="cls-1" cx="18.06" cy="23.19" r="0.97"/><circle class="cls-1" cx="10.7" cy="26.55" r="0.97"/><circle class="cls-1" cx="0.97" cy="22.09" r="0.97"/><circle class="cls-1" cx="15.58" cy="29.58" r="0.97"/><circle class="cls-1" cx="22.09" cy="30.2" r="0.97"/><circle class="cls-1" cx="20.46" cy="4.62" r="0.97"/><circle class="cls-1" cx="16.21" cy="9.62" r="0.97"/><circle class="cls-1" cx="14.96" cy="12.65" r="0.97"/><circle class="cls-1" cx="18.52" cy="14.96" r="0.97"/><circle class="cls-1" cx="21.55" cy="16.21" r="0.97"/><circle class="cls-1" cx="26.55" cy="20.46" r="0.97"/><circle class="cls-1" cx="14.96" cy="21.55" r="0.97"/><circle class="cls-1" cx="8.15" cy="22.27" r="0.97"/><circle class="cls-1" cx="22.27" cy="23.01" r="0.97"/><line class="cls-2" x1="9.08" y1="0.97" x2="15.58" y2="15.58"/><line class="cls-2" x1="15.58" y1="1.58" x2="15.58" y2="15.58"/><line class="cls-2" x1="13.11" y1="7.98" x2="15.58" y2="15.58"/><line class="cls-2" x1="16.21" y1="9.62" x2="15.58" y2="15.58"/><line class="cls-2" x1="20.46" y1="4.62" x2="15.58" y2="15.58"/><line class="cls-2" x1="23.01" y1="8.89" x2="15.58" y2="15.58"/><line class="cls-2" x1="19.22" y1="12.94" x2="15.58" y2="15.58"/><line class="cls-2" x1="23.19" y1="13.11" x2="15.58" y2="15.58"/><line class="cls-2" x1="18.52" y1="14.96" x2="15.58" y2="15.58"/><line class="cls-2" x1="12.94" y1="11.94" x2="15.58" y2="15.58"/><line class="cls-2" x1="12.65" y1="16.21" x2="15.58" y2="15.58"/><line class="cls-2" x1="16.23" y1="18.62" x2="15.58" y2="15.58"/><line class="cls-2" x1="11.94" y1="18.23" x2="15.58" y2="15.58"/><line class="cls-2" x1="18.23" y1="19.22" x2="15.58" y2="15.58"/><line class="cls-2" x1="21.55" y1="16.21" x2="15.58" y2="15.58"/><line class="cls-2" x1="29.58" y1="15.58" x2="15.58" y2="15.58"/><line class="cls-2" x1="30.2" y1="9.08" x2="15.58" y2="15.58"/><line class="cls-2" x1="8.89" y1="8.15" x2="15.58" y2="15.58"/><line class="cls-2" x1="4.62" y1="10.7" x2="15.58" y2="15.58"/><line class="cls-2" x1="9.62" y1="14.96" x2="15.58" y2="15.58"/><line class="cls-2" x1="7.98" y1="18.06" x2="15.58" y2="15.58"/><line class="cls-2" x1="1.58" y1="15.58" x2="15.58" y2="15.58"/><line class="cls-2" x1="0.97" y1="22.09" x2="15.58" y2="15.58"/><line class="cls-2" x1="8.15" y1="22.27" x2="15.58" y2="15.58"/><line class="cls-2" x1="14.96" y1="21.55" x2="15.58" y2="15.58"/><line class="cls-2" x1="10.7" y1="26.55" x2="15.58" y2="15.58"/><line class="cls-2" x1="18.06" y1="23.19" x2="15.58" y2="15.58"/><line class="cls-2" x1="22.27" y1="23.01" x2="15.58" y2="15.58"/><line class="cls-2" x1="26.55" y1="20.46" x2="15.58" y2="15.58"/><line class="cls-2" x1="22.09" y1="30.2" x2="15.58" y2="15.58"/><line class="cls-2" x1="15.58" y1="29.58" x2="15.58" y2="15.58"/><circle class="cls-3" cx="15.58" cy="15.58" r="2.13"/><path class="cls-1" d="M15.58,13.83a1.75,1.75,0,1,1-1.75,1.75,1.75,1.75,0,0,1,1.75-1.75m0-.75a2.5,2.5,0,1,0,2.5,2.5,2.51,2.51,0,0,0-2.5-2.5Z"/></g></g></svg>