<svg xmlns="http://www.w3.org/2000/svg" viewBox="0 0 28.19 32.64"><defs><style>.cls-1{fill:#222220;}.cls-2{fill:none;stroke:#222220;stroke-miterlimit:10;stroke-width:0.5px;stroke-dasharray:2 1;}.cls-3{fill:#fff;}</style></defs><title>apoyo-terrestre</title><g id="Capa_2" data-name="Capa 2"><g id="Capa_1-2" data-name="Capa 1"><circle class="cls-1" cx="23.67" cy="5" r="0.97"/><circle class="cls-1" cx="8.82" cy="13.23" r="0.97"/><circle class="cls-1" cx="11.28" cy="8.01" r="0.97"/><circle class="cls-1" cx="5.38" cy="31.68" r="0.97"/><circle class="cls-1" cx="20.05" cy="0.97" r="0.97"/><circle class="cls-1" cx="14.97" cy="3.6" r="0.97"/><circle class="cls-1" cx="15.83" cy="8.01" r="0.97"/><circle class="cls-1" cx="19.19" cy="5.69" r="0.97"/><circle class="cls-1" cx="9.24" cy="3.6" r="0.97"/><circle class="cls-1" cx="25.88" cy="10.1" r="0.97"/><circle class="cls-1" cx="27.23" cy="15.9" r="0.97"/><circle class="cls-1" cx="20.05" cy="15.04" r="0.97"/><circle class="cls-1" cx="13.25" cy="11.82" r="0.97"/><circle class="cls-1" cx="21.37" cy="10.58" r="0.97"/><circle class="cls-1" cx="17.01" cy="12.19" r="0.97"/><circle class="cls-1" cx="0.97" cy="27.91" r="0.97"/><circle class="cls-1" cx="4.87" cy="23.73" r="0.97"/><circle class="cls-1" cx="7.52" cy="19.77" r="0.97"/><circle class="cls-1" cx="10.6" cy="17.23" r="0.97"/><circle class="cls-1" cx="5.18" cy="27.5" r="0.97"/><circle class="cls-1" cx="17.87" cy="26.64" r="0.97"/><circle class="cls-1" cx="13.46" cy="24.59" r="0.97"/><circle class="cls-1" cx="14.32" cy="20.63" r="0.97"/><circle class="cls-1" cx="11.28" cy="27.5" r="0.97"/><circle class="cls-1" cx="10.95" cy="21.91" r="0.97"/><circle class="cls-1" cx="8.14" cy="25.45" r="0.97"/><circle class="cls-1" cx="21.77" cy="20.19" r="0.97"/><circle class="cls-1" cx="23.64" cy="16.37" r="0.97"/><circle class="cls-1" cx="17.28" cy="21.05" r="0.97"/><circle class="cls-1" cx="17.87" cy="17.23" r="0.97"/><circle class="cls-1" cx="3.47" cy="18.48" r="0.97"/><circle class="cls-1" cx="7.1" cy="8.38" r="0.97"/><line class="cls-2" x1="23.67" y1="5" x2="14.11" y2="16.76"/><line class="cls-2" x1="17.01" y1="12.19" x2="14.11" y2="16.76"/><line class="cls-2" x1="19.19" y1="5.69" x2="14.11" y2="16.76"/><line class="cls-2" x1="20.05" y1="0.97" x2="14.11" y2="16.76"/><line class="cls-2" x1="21.37" y1="10.58" x2="14.11" y2="16.76"/><line class="cls-2" x1="25.88" y1="10.1" x2="14.11" y2="16.76"/><line class="cls-2" x1="20.05" y1="15.04" x2="14.11" y2="16.76"/><line class="cls-2" x1="17.87" y1="17.23" x2="14.11" y2="16.76"/><line class="cls-2" x1="23.64" y1="16.37" x2="14.11" y2="16.76"/><line class="cls-2" x1="27.23" y1="15.9" x2="14.11" y2="16.76"/><line class="cls-2" x1="15.83" y1="8.01" x2="14.11" y2="16.76"/><line class="cls-2" x1="13.25" y1="11.82" x2="14.11" y2="16.76"/><line class="cls-2" x1="14.97" y1="3.6" x2="14.11" y2="16.76"/><line class="cls-2" x1="11.28" y1="8.01" x2="14.11" y2="16.76"/><line class="cls-2" x1="9.24" y1="3.6" x2="14.11" y2="16.76"/><line class="cls-2" x1="7.1" y1="8.38" x2="14.11" y2="16.76"/><line class="cls-2" x1="8.82" y1="13.23" x2="14.11" y2="16.76"/><line class="cls-2" x1="10.6" y1="17.23" x2="14.11" y2="16.76"/><line class="cls-2" x1="3.47" y1="18.48" x2="14.11" y2="16.76"/><line class="cls-2" x1="7.52" y1="19.77" x2="14.11" y2="16.76"/><line class="cls-2" x1="14.32" y1="20.63" x2="14.11" y2="16.76"/><line class="cls-2" x1="17.28" y1="21.05" x2="14.11" y2="16.76"/><line class="cls-2" x1="21.77" y1="20.19" x2="14.11" y2="16.76"/><line class="cls-2" x1="10.95" y1="21.91" x2="14.11" y2="16.76"/><line class="cls-2" x1="4.87" y1="23.73" x2="14.11" y2="16.76"/><line class="cls-2" x1="0.97" y1="27.91" x2="14.11" y2="16.76"/><line class="cls-2" x1="5.18" y1="27.5" x2="14.11" y2="16.76"/><line class="cls-2" x1="8.14" y1="25.45" x2="14.11" y2="16.76"/><line class="cls-2" x1="13.46" y1="24.59" x2="14.11" y2="16.76"/><line class="cls-2" x1="11.28" y1="27.5" x2="14.11" y2="16.76"/><line class="cls-2" x1="17.87" y1="26.64" x2="14.11" y2="16.76"/><line class="cls-2" x1="5.38" y1="31.68" x2="14.11" y2="16.76"/><circle class="cls-3" cx="14.11" cy="16.76" r="2.09"/><path class="cls-1" d="M14.11,15a1.72,1.72,0,1,1-1.71,1.72A1.72,1.72,0,0,1,14.11,15m0-.75a2.47,2.47,0,1,0,2.47,2.47,2.47,2.47,0,0,0-2.47-2.47Z"/></g></g></svg>