<svg xmlns="http://www.w3.org/2000/svg" viewBox="0 0 34.09 34.16"><defs><style>.cls-1,.cls-2,.cls-3,.cls-4,.cls-5,.cls-6{fill:none;stroke:#222220;stroke-miterlimit:10;}.cls-1,.cls-2,.cls-3,.cls-4{stroke-width:2px;}.cls-2{stroke-dasharray:3.16 1.58;}.cls-3{stroke-dasharray:3.78 1.89;}.cls-4{stroke-dasharray:3.54 1.77;}.cls-6{stroke-dasharray:4 2;}</style></defs><title>avances-carto</title><g id="Capa_2" data-name="Capa 2"><g id="Capa_1-2" data-name="Capa 1"><line class="cls-1" x1="22.72" y1="32.77" x2="24.71" y2="32.84"/><line class="cls-2" x1="26.3" y1="32.89" x2="30.25" y2="33.03"/><polyline class="cls-1" points="31.04 33.05 33.04 33.12 32.94 31.13"/><line class="cls-3" x1="32.85" y1="29.24" x2="31.8" y2="7.54"/><polyline class="cls-1" points="31.76 6.6 31.66 4.6 29.68 4.38"/><line class="cls-4" x1="27.92" y1="4.18" x2="18.25" y2="3.08"/><line class="cls-1" x1="17.38" y1="2.98" x2="15.39" y2="2.75"/><polyline class="cls-1" points="15.39 2.75 1.04 1.12 2.08 32.05 22.72 32.77"/><line class="cls-5" x1="1.58" y1="17.12" x2="32.38" y2="19.43"/><line class="cls-5" x1="5.51" y1="1.63" x2="6.77" y2="32.22"/><line class="cls-5" x1="10.36" y1="2.18" x2="12.06" y2="32.4"/><line class="cls-5" x1="15.39" y1="2.75" x2="17.04" y2="32.57"/><line class="cls-5" x1="21.68" y1="18.62" x2="22.71" y2="32.77"/><line class="cls-6" x1="20.57" y1="3.34" x2="21.68" y2="18.62"/><line class="cls-6" x1="26.58" y1="4.02" x2="28.52" y2="32.97"/></g></g></svg>