<svg xmlns="http://www.w3.org/2000/svg" viewBox="0 0 32 32"><defs><style>.cls-1{fill:#222220;}</style></defs><title>general</title><g id="Capa_2" data-name="Capa 2"><g id="Capa_1-2" data-name="Capa 1"><path class="cls-1" d="M21.16,8.19,32,3.38,16.1,0,0,3.58,10.81,8.3,0,11.47l10.3,5.68L0,21.08,15.9,32,32,20.88,21.68,17,32,11.26Zm8.69,13L15.9,30.79,2.14,21.34l9.3-3.55,4.46,2.46,4.63-2.59ZM12.67,17.32,16.1,16l3.2,1.2-3.4,1.9Zm3.43-2.38-4.58,1.75L2.58,11.75l9.66-2.83,3.66,1.6,3.83-1.7,9.68,2.75-9,5Z"/></g></g></svg>