<svg xmlns="http://www.w3.org/2000/svg" viewBox="0 0 32 31.87"><title>inah</title><g id="Capa_2" data-name="Capa 2"><g id="Capa_1-2" data-name="Capa 1"><path d="M5.57,10.8c0-.18-.11-.28-.18-.41L3.31,6.91C2.84,6.12,3,5.65,3.8,5.27L9.92,2.41a2.58,2.58,0,0,1,.48-.21c.51-.16.74-.05,1,.43.39.8.77,1.6,1.15,2.4.06.13.11.3.27.31s.2-.19.27-.31c.86-1.55,1.73-3.09,2.6-4.64C15.74.24,15.81,0,16,0s.27.24.36.4L18.93,5c.07.12.1.32.28.3s.19-.2.26-.33c.38-.79.76-1.59,1.15-2.39.23-.47.45-.57.94-.43a4.19,4.19,0,0,1,.49.2l6.23,2.92a.93.93,0,0,1,.46,1.49c-.68,1.16-1.38,2.3-2.06,3.45-.1.16-.18.32-.3.53a7.93,7.93,0,0,1,2.12,0,3.76,3.76,0,0,1,3.26,3.09,7,7,0,0,1,0,3.41,4.19,4.19,0,0,1-3.87,3.07,9.23,9.23,0,0,1-1.18.06c-.42,0-.39.16-.23.44l1.81,3.33a1.7,1.7,0,0,1,.18.44c.13.58.07.74-.46,1l-5.45,2.83a3.28,3.28,0,0,1-1.29.39.57.57,0,0,1-.62-.36c-.49-1-1-2-1.5-3a.39.39,0,0,0-.54-.24,10.08,10.08,0,0,1-5.34,0c-.28-.08-.41,0-.54.25-.48,1-1,2-1.48,3a.61.61,0,0,1-.69.39,3.48,3.48,0,0,1-1.32-.43C7.53,27.49,5.77,26.55,4,25.67c-.62-.31-.74-.65-.39-1.35.55-1.12,1.17-2.2,1.77-3.3,0-.05,0-.1.08-.16.2-.38.16-.44-.26-.45A7.07,7.07,0,0,1,2.61,20,3.92,3.92,0,0,1,0,16.37a7.2,7.2,0,0,1,.35-3.05,3.76,3.76,0,0,1,3.45-2.59A6.77,6.77,0,0,1,5.57,10.8ZM4.46,18.63a3.07,3.07,0,0,0,2-.78c.37-.3.74-.61,1.12-.89a.65.65,0,0,1,1.09.47,1.44,1.44,0,0,1-.18.88Q7,21.16,5.46,24c-.31.58-.25.75.33,1l3.49,1.6c.68.32.94.23,1.3-.43.64-1.21,1.27-2.42,1.92-3.63.15-.27.15-.4-.16-.59a7.27,7.27,0,0,1,.14-12.65c.26-.14.3-.24.16-.52-.7-1.31-1.37-2.63-2.05-3.94-.3-.58-.5-.65-1.08-.38L6.12,6.09c-.72.34-.79.57-.41,1.29Q7,9.8,8.24,12.21a2,2,0,0,1,.15,1.56.56.56,0,0,1-.68.41,1.34,1.34,0,0,1-.84-.48,3.15,3.15,0,0,0-3.46-.93,2.67,2.67,0,0,0-1.87,2.5A3,3,0,0,0,4.46,18.63Zm26-3.16a4.6,4.6,0,0,0-.09-.71,2.89,2.89,0,0,0-4-1.91,3.52,3.52,0,0,0-1.36,1,1,1,0,0,1-1,.3c-.38-.12-.38-.48-.42-.79a2,2,0,0,1,.24-1.18c.45-.83.88-1.67,1.32-2.51s.83-1.6,1.25-2.4c.31-.6.22-.85-.37-1.13L22.49,4.49c-.59-.28-.78-.22-1.08.35-.68,1.3-1.34,2.61-2,3.9-.17.33-.11.44.19.62a7,7,0,0,1,3.68,5.79A7.08,7.08,0,0,1,19.6,22c-.17.11-.32.16-.18.42.7,1.29,1.37,2.6,2.07,3.89.28.51.58.59,1.12.34l3.49-1.59c.69-.32.74-.46.39-1.13q-1.47-2.79-3-5.58a1.57,1.57,0,0,1-.19-.92A.63.63,0,0,1,24.4,17c.37.27.73.55,1.07.84a2.88,2.88,0,0,0,3.35.54A3.05,3.05,0,0,0,30.46,15.47ZM16,13.73H20.9c.34,0,.45-.05.28-.4A5.49,5.49,0,0,0,16,10a5.49,5.49,0,0,0-5.19,3.34c-.15.29-.11.39.24.39Zm-4.92,2c-.85,0-.85,0-.75.73a5.68,5.68,0,0,0,11.27,0c.11-.72.11-.72-.62-.73s-.82,0-1,.79a4.13,4.13,0,0,1-8.12-.19c-.08-.59-.08-.59-.68-.6ZM16,3.48c-.56,1-1,1.93-1.6,2.8a2.67,2.67,0,0,0-.25,2.13c0,.15.06.23.25.19a7.35,7.35,0,0,1,3.2,0c.1,0,.23.07.24-.08,0-.56.31-1.14,0-1.67C17.28,5.73,16.65,4.66,16,3.48Zm0,12.23h-2.1c-.2,0-.28.05-.25.27a2.34,2.34,0,0,0,4.62.11c.05-.28,0-.39-.31-.38C17.33,15.72,16.67,15.71,16,15.71Zm0,8.39a4.66,4.66,0,0,0,1.59-.24c.52-.17.51-.16.33-.67-.11-.33-.25-.43-.63-.35a6.61,6.61,0,0,1-2.47,0c-.61-.1-.6-.08-.83.5-.1.24-.05.33.18.41A5.07,5.07,0,0,0,16,24.1Z"/><path d="M18.91,28.93A2.93,2.93,0,1,1,16,26,2.91,2.91,0,0,1,18.91,28.93Zm-4.33,0a1.42,1.42,0,1,0,2.83,0,1.42,1.42,0,1,0-2.83,0Z"/></g></g></svg>