<svg xmlns="http://www.w3.org/2000/svg" viewBox="0 0 32 28"><defs><style>.cls-1{fill:#fff;}.cls-2{fill:#222220;}.cls-3,.cls-4{fill:none;}.cls-3{stroke:#222220;stroke-miterlimit:10;}</style></defs><title>instrumentos-planeacion</title><g id="Capa_2" data-name="Capa 2"><g id="Capa_1-2" data-name="Capa 1"><polygon class="cls-1" points="7.44 22.41 1.05 26.7 9.41 5.31 15.58 0.65 20.98 5.66 27.16 0.68 31.5 5.2 31.5 27.09 24.21 22.41 15.99 27.42 7.44 22.41"/><path class="cls-2" d="M15.55,1.3l4.77,4.43.63.59.68-.54,5.49-4.43L31,5.4V26.17l-6.25-4-.53-.34-.53.33L16,26.84l-8-4.7-.54-.32-.52.35L2.09,25.39,9.83,5.63,15.55,1.3M27.21,0,21,5,15.61,0,9,5,0,28l7.45-5L16,28l8.21-5L32,28V5L27.21,0Z"/><line class="cls-3" x1="15.32" y1="0.83" x2="7.45" y2="23"/><line class="cls-3" x1="27.1" y1="0.84" x2="24.21" y2="23"/><line class="cls-3" x1="16.17" y1="27.2" x2="21" y2="5"/><path class="cls-2" d="M11.75,9.65l0,0a7.15,7.15,0,0,1-1,2.18c-.33.52-.44.69-.2.86a.39.39,0,0,1,.16.26.46.46,0,0,0,.34.1l1.37-3.85C12.15,9.37,12,9.51,11.75,9.65Z"/><path class="cls-2" d="M11.84,9c.27-.18.52-.37.76-.56l.81-2.28A5.72,5.72,0,0,0,11.84,9Z"/><path class="cls-2" d="M14.19,2.61c.22,0,.36.08.27.33a3.87,3.87,0,0,1-.61.9l-.06.07.08,0,.44-.2.46-1.3A2.21,2.21,0,0,0,14.19,2.61Z"/><path class="cls-2" d="M10.12,14c-.15.19-.32.36-.45.5-.34.36-.44.48-.48.6a5.56,5.56,0,0,1-1.26,1.74,4,4,0,0,0-1,1.38c-.07.29.4.18.83.08s.83-.17.78.15c.25-.17.49-.35.72-.52l1.44-4.06A1.53,1.53,0,0,1,10.12,14Z"/><path class="cls-2" d="M8.17,19.27l-.31.2-.43.44a6.67,6.67,0,0,0-2,2.76c0,.1.4-.18.69-.43a10.39,10.39,0,0,0,1.34-1.32A9.3,9.3,0,0,1,8.6,19.78L9,18.68C8.72,18.88,8.45,19.08,8.17,19.27Z"/><path class="cls-4" d="M13.89,6.06l.63-.17c.6-.19.9-.48.91-.84S15,4.12,14.31,3.68l-.9,2.52Z"/><path class="cls-2" d="M18.27,11.83a2.94,2.94,0,0,0-1.14.45,5.66,5.66,0,0,1,1.8,2.23l.47-2.17A3.83,3.83,0,0,0,18.27,11.83Z"/><path class="cls-2" d="M18.13,9.09a3.1,3.1,0,0,1-.49-.36,3.46,3.46,0,0,0-2.47.13,4.7,4.7,0,0,1-2.78.24l-1.41,4a1.27,1.27,0,0,0,.54.42h0c1.06.38,2.87-.72,4.13-1.48s1.94-1.15,2.55-1a5.44,5.44,0,0,1,1.35.6l.09-.41A3.43,3.43,0,0,0,18.13,9.09Z"/><path class="cls-2" d="M14.78,8.16a5.71,5.71,0,0,1,2.54-.4A4.73,4.73,0,0,1,17,6.17c-.08-.73-.15-1.36-.69-1.71A2.48,2.48,0,0,1,15.14,3a1.94,1.94,0,0,0-.37-.65l-.46,1.3c.64.44,1.14.89,1.12,1.37s-.31.65-.91.84l-.63.17-.48.14L12.6,8.48A4.34,4.34,0,0,0,14.78,8.16Z"/><path class="cls-2" d="M13,14.24a3.09,3.09,0,0,1-1.71-.05h0a2.35,2.35,0,0,1-.54-.3L9.25,18A3,3,0,0,0,11,17.88C12,17.46,12.72,16.21,13,14.24Z"/><path class="cls-2" d="M16.23,12.74h0a17.89,17.89,0,0,1-2.22,1C14,16.3,13.17,18,11.69,18.51a4.11,4.11,0,0,1-2.64,0L8.62,19.7a8.93,8.93,0,0,1,2.49,1c1.67.85,1.88.58,2.05.37a.7.7,0,0,1,.65-.35,2.42,2.42,0,0,1,1.32.73,4.72,4.72,0,0,1,1.61,2.37c0,.11.08.2.11.3l1.81-8.31A5.16,5.16,0,0,0,16.23,12.74Z"/><path class="cls-2" d="M25.07,11.3l-.27.22,0,.35a6.19,6.19,0,0,1-.38,3.44,1.16,1.16,0,0,0,.75.09L25.78,11A1.63,1.63,0,0,0,25.07,11.3Z"/><path class="cls-2" d="M19.71,15.54c.44.81.78,1.46,2.28.95a3.67,3.67,0,0,0,1.58-.95c.81-.92.76-2.33.72-3.43a2.35,2.35,0,0,1,0-.26l-.11.05c-.68.34-.76.41-.8.69a1.76,1.76,0,0,1-1.06,1.17c-.92.44-2.06.31-2.24-.69L20,12.8c0-.15-.05-.31-.08-.47a2.5,2.5,0,0,0-.54,0l-.47,2.17A3.06,3.06,0,0,1,19.71,15.54Z"/><path class="cls-4" d="M19.89,11.4c-.07-.11-.15-.11-.24-.2l-.09.41C19.66,11.56,19.8,11.44,19.89,11.4Z"/><path class="cls-2" d="M17.88,23.86A8,8,0,0,0,19,23.17a.84.84,0,0,0-.38-.2c-.39-.13-.34-.44-.24-.67a1.92,1.92,0,0,1,.57-.66,3.61,3.61,0,0,1,1.48-2.55,7,7,0,0,0,1.5-1.88l-.13.05c-2,.72-2.51-.19-3-1.06-.06-.1-.07-.33-.12-.43l-1.81,8.31C17,24.25,17.26,24.21,17.88,23.86Z"/><path class="cls-2" d="M24.16,15.67l-.07.09a4.71,4.71,0,0,1-1.28,1,8.34,8.34,0,0,1-2,2.65c-.68.68-1,1-.91,1.69a1.3,1.3,0,0,1,1,.06c.11.06.31.1.59-.14a1.71,1.71,0,0,0,.59-1.13,1.18,1.18,0,0,1,.41-.79c.53-.51,1.17-.5,2.23-.45h0l.37-2.81A1.62,1.62,0,0,1,24.16,15.67Z"/><path class="cls-2" d="M26.79,17.57a13.56,13.56,0,0,1,1.32,1.7c0-.18.05-.36.08-.53a4.48,4.48,0,0,0-.27-3.23c-.37-.71-.7-1.48-1-2.22A25.22,25.22,0,0,0,25.78,11L25.2,15.4A12.61,12.61,0,0,0,26.79,17.57Z"/><path class="cls-2" d="M25.21,20c-.08-.29-.11-.55,0-.67s.21-.11.51.14a8.8,8.8,0,0,1,.66.62c.47.48,1.05,1.06,1.34,1s.26-.22.27-.62c0-.08,0-.15,0-.23a6.31,6.31,0,0,0-1.38-2.06,23.22,23.22,0,0,1-1.48-2.31l-.37,2.81C24.92,19,25,19.68,25.21,20Z"/></g></g></svg>