<svg xmlns="http://www.w3.org/2000/svg" viewBox="0 0 32 32"><defs><style>.cls-1{fill:#222220;}</style></defs><title>mapas-base</title><g id="Capa_2" data-name="Capa 2"><g id="Capa_1-2" data-name="Capa 1"><path class="cls-1" d="M16.52,1V7.16l-.52,0-.52,0V1h1m1-1h-3V8.25l1.08-.09.44,0,.44,0,1.08.09V0Z"/><path class="cls-1" d="M7.16,15.48c0,.17,0,.34,0,.52s0,.35,0,.52H1v-1H7.16m1.09-1H0v3H8.25l-.09-1.08c0-.14,0-.29,0-.44s0-.3,0-.44l.09-1.08Z"/><path class="cls-1" d="M16.52,24.84V31h-1V24.84l.52,0,.52,0m1-1.09-1.08.09-.44,0-.44,0-1.08-.09V32h3V23.75Z"/><path class="cls-1" d="M31,15.48v1H24.84c0-.17,0-.34,0-.52s0-.35,0-.52H31m1-1H23.75l.09,1.08c0,.14,0,.29,0,.44s0,.3,0,.44l-.09,1.08H32v-3Z"/><path class="cls-1" d="M16,22a6,6,0,1,1,6-6A6,6,0,0,1,16,22Zm0-11.43A5.43,5.43,0,1,0,21.43,16,5.44,5.44,0,0,0,16,10.57Z"/><circle class="cls-1" cx="16" cy="16" r="4.08"/><polygon class="cls-1" points="9.56 18.37 9.56 18.37 9.56 18.37 9.56 18.37"/><path class="cls-1" d="M32,19.76V32H19.76V23.34a8.15,8.15,0,0,0,3.58-3.58Z"/><path class="cls-1" d="M8.66,19.76a8.15,8.15,0,0,0,3.58,3.58V32H0V19.76Z"/><path class="cls-1" d="M12.24,8.66a8.15,8.15,0,0,0-3.58,3.58H0V0H12.24Z"/><polygon class="cls-1" points="28.23 0 19.76 8.46 19.76 0 28.23 0"/><polygon class="cls-1" points="32 12.24 23.54 12.24 32 3.77 32 12.24"/></g></g></svg>