<svg xmlns="http://www.w3.org/2000/svg" viewBox="0 0 32 32"><defs><style>.cls-1{fill:#222220;}</style></defs><title>medio-fisico-nat</title><g id="Capa_2" data-name="Capa 2"><g id="Capa_1-2" data-name="Capa 1"><path class="cls-1" d="M7.55,19.06c4.61,0,4.15,6,7.21,11.72a3,3,0,0,0-.46,0C12.43,30.74,8.19,32,4.57,32A7.29,7.29,0,0,1,0,30.78c1.22-6.54,2.59-11.56,7.38-11.72h.17"/><path class="cls-1" d="M32,32C27.33,23,33.07-.15,21,0,15.49.07,10.64,11.55,8.7,17.07c3.65.62,4.8,4.19,5.82,7.38a42.54,42.54,0,0,0,2.09,5.35C18.63,34,28.31,30.14,32,32Z"/></g></g></svg>