<svg xmlns="http://www.w3.org/2000/svg" viewBox="0 0 33 33"><defs><style>.cls-1{fill:#222220;}.cls-2{fill:#fff;}</style></defs><title>ortofotografia</title><g id="Capa_2" data-name="Capa 2"><g id="Capa_1-2" data-name="Capa 1"><polygon points="9 10.15 9 17.4 12.14 11.96 9 10.15"/><polygon points="14.99 22.61 9.11 19.21 9 19.4 9 27 11.6 28.49 14.99 22.61"/><polygon points="9 28.15 9 32.99 11.1 29.36 9 28.15"/><polygon points="10.15 33 17.4 33 11.96 29.86 10.15 33"/><polygon points="31.85 9 24.6 9 30.04 12.14 31.85 9"/><polygon points="27.01 19.39 32.89 22.79 33 22.6 33 15.01 30.4 13.51 27.01 19.39"/><polygon points="33 13.85 33 9.01 30.9 12.64 33 13.85"/><polygon points="19.39 14.99 22.79 9.11 22.6 9 15.01 9 13.51 11.6 19.39 14.99"/><polygon points="13.85 9 9.01 9 12.64 11.1 13.85 9"/><polygon points="22.61 27.01 19.21 32.89 19.4 33 26.99 33 28.49 30.4 22.61 27.01"/><rect x="24.35" y="21.5" width="6.79" height="6.79" transform="translate(-7.69 36.48) rotate(-60)"/><rect x="13.71" y="24.35" width="6.79" height="6.79" transform="translate(-15.48 28.69) rotate(-60)"/><rect x="17.6" y="17.6" width="6.79" height="6.79" transform="translate(-7.69 28.69) rotate(-60)"/><polygon points="29.86 30.04 33 31.85 33 24.6 29.86 30.04"/><rect x="10.85" y="13.71" width="6.79" height="6.79" transform="translate(-7.69 20.89) rotate(-60)"/><rect x="21.5" y="10.85" width="6.79" height="6.79" transform="translate(0.11 28.69) rotate(-60)"/><polygon points="28.15 33 32.99 33 29.36 30.9 28.15 33"/><path class="cls-1" d="M11,17.42a6,6,0,0,1-4.09-1.61h-4A2.43,2.43,0,0,1,.5,13.38V6.7A2.43,2.43,0,0,1,2.92,4.28H5.64c.15,0,.5-.22,1.23-1.69l.37-.75A2.42,2.42,0,0,1,9.41.5h3.18a2.42,2.42,0,0,1,2.17,1.34l.37.75c.73,1.47,1.08,1.69,1.23,1.69h2.71A2.43,2.43,0,0,1,21.5,6.7v6.68a2.43,2.43,0,0,1-2.43,2.43h-4A6,6,0,0,1,11,17.42Z"/><path class="cls-2" d="M12.59,1a1.93,1.93,0,0,1,1.72,1.06l.32.65c.33.66,1,2.07,1.73,2.07h2.71A1.92,1.92,0,0,1,21,6.7v6.68a1.93,1.93,0,0,1-1.93,1.93H14.89a5.5,5.5,0,0,1-7.78,0H2.93A1.93,1.93,0,0,1,1,13.38V6.7A1.92,1.92,0,0,1,2.93,4.78H5.64c.73,0,1.4-1.41,1.73-2.07l.32-.65A1.93,1.93,0,0,1,9.41,1h3.18m0-1H9.41A2.89,2.89,0,0,0,6.8,1.62l-.33.65,0,.09a5.13,5.13,0,0,1-.88,1.42H2.93A2.93,2.93,0,0,0,0,6.7v6.68a2.93,2.93,0,0,0,2.93,2.93H6.72a6.49,6.49,0,0,0,8.56,0h3.79A2.93,2.93,0,0,0,22,13.38V6.7a2.93,2.93,0,0,0-2.93-2.92H16.46a5.13,5.13,0,0,1-.88-1.42l-.05-.09-.33-.65A2.89,2.89,0,0,0,12.59,0Z"/><rect class="cls-2" x="8.92" y="2.18" width="4.17" height="2.39" rx="0.5"/><circle class="cls-2" cx="11" cy="11.42" r="4"/></g></g></svg>