<svg xmlns="http://www.w3.org/2000/svg" viewBox="0 0 29 33"><defs><style>.cls-1{fill:none;}.cls-1,.cls-3{stroke:#222220;stroke-miterlimit:10;}.cls-2{fill:#222220;}.cls-3{fill:#fff;}</style></defs><title>peritos</title><g id="Capa_2" data-name="Capa 2"><g id="Capa_1-2" data-name="Capa 1"><path class="cls-1" d="M6.5,16.5h16a6,6,0,0,1,6,6v10a0,0,0,0,1,0,0H.5a0,0,0,0,1,0,0v-10A6,6,0,0,1,6.5,16.5Z"/><circle class="cls-1" cx="14.5" cy="7.5" r="7"/><polygon class="cls-2" points="13.38 20.74 12.38 16.5 16.62 16.5 15.62 20.74 13.38 20.74"/><polygon class="cls-2" points="13.38 20.74 12.38 32.5 16.62 32.5 15.62 20.74 13.38 20.74"/><line class="cls-1" x1="22.5" y1="22.5" x2="22.5" y2="32.5"/><line class="cls-1" x1="6.5" y1="22.5" x2="6.5" y2="32.5"/><polygon class="cls-3" points="13.38 16.5 10.74 20.24 9.55 16.5 13.38 16.5"/><polygon class="cls-3" points="15.62 16.5 18.26 20.24 19.45 16.5 15.62 16.5"/><path class="cls-1" d="M10.75,1.59C12.55,4,16.69,5.72,21.05,5"/><path class="cls-1" d="M7.89,5.19c1.53.38,4-.2,4.82-1.8"/></g></g></svg>