<?xml version="1.0" standalone="no"?>
<!DOCTYPE svg PUBLIC "-//W3C//DTD SVG 20010904//EN"
 "http://www.w3.org/TR/2001/REC-SVG-20010904/DTD/svg10.dtd">
<svg version="1.0" xmlns="http://www.w3.org/2000/svg"
 width="690.000000pt" height="576.000000pt" viewBox="0 0 690.000000 576.000000"
 preserveAspectRatio="xMidYMid meet">

<g transform="translate(0.000000,576.000000) scale(0.100000,-0.100000)"
fill="#000000" stroke="none">
<path d="M3165 5135 c-103 -73 -245 -172 -373 -260 -183 -126 -308 -214 -324
-229 -17 -15 -18 -115 -18 -1826 l0 -1811 78 -49 c42 -27 84 -54 92 -60 8 -6
52 -35 98 -65 46 -30 102 -67 125 -83 103 -71 200 -132 207 -132 5 0 10 -4 12
-8 2 -4 43 -32 91 -62 48 -29 90 -57 93 -62 10 -16 54 -7 96 21 24 15 63 39
88 53 65 36 218 130 270 166 25 17 115 73 200 125 85 53 165 105 177 117 21
22 21 29 21 309 0 157 -2 294 -4 304 -5 15 -22 17 -180 17 -102 0 -183 -4
-195 -10 -18 -10 -19 -23 -19 -170 l0 -160 -27 -17 c-16 -10 -32 -21 -38 -26
-27 -21 -171 -114 -202 -130 -19 -10 -44 -27 -56 -38 -11 -10 -24 -19 -28 -19
-4 0 -15 -8 -24 -17 -25 -24 -69 -20 -109 10 -19 15 -38 27 -42 27 -4 0 -22
11 -40 25 -18 14 -35 25 -37 25 -3 0 -31 17 -63 38 -33 22 -86 56 -119 78 -33
21 -63 43 -67 49 -9 12 -9 3091 0 3122 6 18 256 209 393 300 39 25 57 23 91
-10 7 -8 51 -40 98 -72 117 -80 221 -158 247 -187 22 -23 23 -31 25 -278 l3
-255 195 0 195 0 3 357 2 356 -27 25 c-16 14 -89 70 -163 126 -74 55 -151 112
-170 126 -195 147 -277 207 -295 218 -12 6 -51 33 -86 60 -34 26 -72 47 -84
46 -11 0 -60 -29 -110 -64z"/>
<path d="M4396 4494 c-3 -9 -6 -150 -6 -314 0 -227 3 -302 13 -310 14 -13 138
-104 221 -163 32 -23 82 -60 110 -83 l51 -40 5 -1140 c3 -626 6 -1140 8 -1141
2 -2 67 36 172 100 19 11 92 58 163 104 l127 84 0 840 c0 718 2 840 14 845 8
3 37 -12 64 -33 106 -81 222 -163 231 -163 5 0 14 -7 21 -15 7 -8 21 -15 31
-15 18 0 19 13 19 288 l0 288 -32 30 c-34 31 -100 82 -130 99 -24 14 -174 119
-228 160 -25 19 -79 57 -120 84 -41 28 -83 57 -94 63 -35 24 -100 71 -111 80
-13 12 -221 158 -340 239 -49 34 -99 69 -110 78 -11 10 -32 25 -47 34 -23 14
-27 15 -32 1z"/>
<path d="M2045 4384 c-44 -31 -105 -72 -135 -92 -30 -19 -57 -38 -60 -41 -3
-4 -43 -32 -90 -64 -47 -31 -104 -71 -128 -87 -23 -17 -46 -30 -50 -30 -4 0
-18 -10 -32 -23 -14 -12 -59 -45 -100 -73 -41 -28 -118 -79 -170 -115 -52 -35
-101 -70 -108 -76 -7 -7 -17 -13 -21 -13 -4 0 -16 -8 -27 -18 -10 -9 -59 -44
-109 -76 -49 -33 -96 -66 -102 -75 -18 -21 -19 -991 -1 -1009 9 -9 112 -12
401 -12 248 0 395 -4 408 -10 18 -10 19 -24 19 -316 0 -334 0 -336 -58 -298
-35 24 -63 41 -82 51 -8 4 -55 31 -103 60 -48 29 -90 53 -93 53 -8 0 -89 54
-96 65 -4 5 -8 44 -8 85 0 41 -4 81 -8 88 -7 9 -53 12 -198 10 l-189 -3 -2
-240 c-1 -235 -1 -240 20 -255 26 -18 56 -36 77 -47 8 -4 49 -27 90 -52 111
-68 114 -70 130 -78 8 -4 55 -31 103 -60 48 -29 89 -53 92 -53 2 0 40 -23 85
-50 45 -28 83 -50 85 -50 2 0 67 -38 146 -85 78 -47 143 -85 145 -85 3 0 40
-23 84 -50 44 -28 82 -50 85 -50 3 0 23 -11 45 -25 22 -14 45 -25 52 -25 10 0
13 179 11 907 -2 499 -6 910 -11 915 -4 4 -190 9 -412 10 l-405 3 -3 160 -2
160 135 95 c74 52 160 114 192 138 32 23 65 41 73 39 12 -2 15 -27 18 -145 l3
-142 204 2 205 3 3 568 c2 498 0 567 -13 567 -8 0 -51 -25 -95 -56z"/>
</g>
</svg>
