<svg xmlns="http://www.w3.org/2000/svg" viewBox="0 0 28 32"><defs><style>.cls-1{fill:#222220;}</style></defs><title>sipreg-alt</title><g id="Capa_2" data-name="Capa 2"><g id="Capa_1-2" data-name="Capa 1"><path class="cls-1" d="M0,16.52V32H18.48V21.08h5.71V32H28V16.52Zm14,8.74H3.68V21.08H14Z"/><polygon class="cls-1" points="12.21 0 10.39 0 5.96 16.52 7.78 16.52 12.21 0"/><polygon class="cls-1" points="8.84 0 7.02 0 2.59 16.52 4.41 16.52 8.84 0"/><polygon class="cls-1" points="21.84 7.61 19.84 15.08 19.84 16.52 21.27 16.52 21.84 14.4 21.84 7.61"/><polygon class="cls-1" points="13.48 7.86 13.48 3.52 14.54 3.91 15.05 1.97 13.48 1.39 13.48 1.07 9.34 16.52 11.15 16.52 13.48 7.86"/><polygon class="cls-1" points="3.65 0 0 13.62 0 16.52 1.04 16.52 5.47 0 3.65 0"/><polygon class="cls-1" points="22.09 6.67 23.75 7.27 24.27 5.33 22.61 4.73 22.09 6.67"/><polygon class="cls-1" points="19.84 9.28 21.2 4.21 19.54 3.6 19.02 5.54 19.84 5.84 19.84 9.28"/><polygon class="cls-1" points="2.1 0 0 0 0 7.82 2.1 0"/><polygon class="cls-1" points="13.48 13.65 12.71 16.52 13.48 16.52 13.48 13.65"/><polygon class="cls-1" points="16.47 2.48 15.95 4.42 17.61 5.03 18.13 3.09 16.47 2.48"/></g></g></svg>