<?xml version="1.0" encoding="utf-8"?>
<!-- Generator: Adobe Illustrator 27.7.0, SVG Export Plug-In . SVG Version: 6.00 Build 0)  -->
<svg version="1.1" id="Capa_1" xmlns="http://www.w3.org/2000/svg" xmlns:xlink="http://www.w3.org/1999/xlink" x="0px" y="0px"
	 viewBox="0 0 32 32" style="enable-background:new 0 0 32 32;" xml:space="preserve">
<path d="M23.2,26.9V28H10.9v-2H23v-0.1V25H10.9v-2h9.2c-0.6-0.3-1.1-0.6-1.5-1h-7.7v-2h6.5c-0.1-0.3-0.1-0.6-0.2-1h-6.3v-2H18
	c0.5-0.5,1.3-0.8,2-0.8c0.9,0,1.6,0.3,2.1,0.8H23v-1H10.9v-2h9.4c-0.4-0.3-0.8-0.6-1.2-1H1V8.8h16.3c0-0.2,0-0.3,0-0.5
	c0-0.2,0-0.3,0-0.5H0V32h24.2v-5.1H24H23.2z M9.9,31H1v-2h9V31z M9.9,28H1v-2h9V28z M9.9,25H1v-2h9V25z M9.9,22H1v-2h9V22z M9.9,19
	H1v-2h9V19z M9.9,16H1v-2h9V16z M23.2,31H10.9v-2h12.3V31z"/>
<g id="Capa_2_00000014621042372887463540000002361143991678521485_">
	<g id="Capa_1-2">
		<path d="M32,17.1c0-3-1.6-4.8-5.7-6.4l-0.1-0.1V4.4c0.3,0,0.6,0,0.9,0.1L27.3,6c0.3,2.1,1.4,2.5,2.4,2.5c0.9,0,1.6-0.6,1.7-1.5
			c0-2.4-2.2-3.9-5.2-4.2V0h-1.9v2.8c-3.8,0.4-5.9,2.6-5.9,5.5c0,3.1,1.9,4.8,5.4,6.2l0.4,0.1v6.5c-0.6,0-1.2-0.1-1.8-0.2l-0.2-1.8
			c-0.2-1.6-0.9-2.1-2-2.1c-0.9,0-1.6,0.6-1.9,1.4c0,2.6,2.1,4.2,5.9,4.3v3.1h1.9v-3.1C29.7,22.2,32,20,32,17.1z M22.2,7.3
			c-0.1-1.3,0.8-2.4,2-2.7v5.3C22.9,9.2,22.2,8.5,22.2,7.3z M25.9,21v-5.5c1.4,0.7,1.9,1.4,1.9,2.9C27.9,19.6,27.1,20.7,25.9,21z"/>
	</g>
</g>
</svg>
